<svg width="73" height="72" viewBox="0 0 73 72" fill="none" xmlns="http://www.w3.org/2000/svg">
<path d="M72 36.0025C72 55.886 55.8809 72.0051 35.9975 72.0051C16.114 72.0051 0 55.8809 0 36.0025C0 16.1242 16.1191 0 36.0025 0C55.886 0 72.0051 16.1191 72.0051 36.0025H72ZM37.1659 10.8003H34.829C32.6903 10.8003 30.9377 12.5529 30.9377 14.6916V17.0284C30.9377 19.1672 32.6903 20.9198 34.829 20.9198H37.1659C39.3046 20.9198 41.0572 19.1672 41.0572 17.0284V14.6916C41.0572 12.5529 39.3046 10.8003 37.1659 10.8003ZM49.1346 22.8045H46.7977C44.659 22.8045 42.9064 24.5571 42.9064 26.6958V29.0327C42.9064 31.1714 44.659 32.924 46.7977 32.924H49.1346C51.2733 32.924 53.0259 31.1714 53.0259 29.0327V26.6958C53.0259 24.5571 51.2733 22.8045 49.1346 22.8045ZM37.1659 51.0853H34.829C32.6903 51.0853 30.9377 52.8379 30.9377 54.9767V57.3135C30.9377 59.4522 32.6903 61.2048 34.829 61.2048H37.1659C39.3046 61.2048 41.0572 59.4522 41.0572 57.3135V54.9767C41.0572 52.8379 39.3046 51.0853 37.1659 51.0853ZM41.0572 28.9971V26.6603C41.0572 24.5216 39.3046 22.7689 37.1659 22.7689H22.8604C20.7217 22.7689 18.969 24.5216 18.969 26.6603V28.9971C18.969 31.1358 20.7217 32.8885 22.8604 32.8885H30.9377V44.1713V45.3397C30.9377 47.4785 32.6903 49.2311 34.829 49.2311H37.1659C39.3046 49.2311 41.0572 47.4785 41.0572 45.3397V43.0029V28.9971Z" fill="white"/>
<script xmlns=""/></svg>