<svg xmlns="http://www.w3.org/2000/svg" direction="ltr" width="51.32070964351179"
	height="59.14136479966991"
	viewBox="3253.063193239575 19.86350587757514 51.32070964351179 59.14136479966991"
	stroke-linecap="round" stroke-linejoin="round" style="background-color: transparent;"
	data-color-mode="light" class="tl-container tl-theme__force-sRGB tl-theme__light">
	<defs />
	<g transform="matrix(1, 0, 0, 1, 3257.5419, 28.0271)" opacity="1">
		<g transform="scale(1)">
			<path
				d="M1.6488,-2.1642 T4.0807,-0.1483 8.5577,3.4901 12.3383,6.3885 15.3417,8.4443 18.0947,10.051 22.1588,9.7124 27.4398,7.5675 32.3179,5.8254 36.0806,4.4757 40.3856,2.9018 43.1039,1.915 A2.3959,2.3959 0 0 1 44.5868,6.4715 T41.8342,7.2653 37.547,8.5305 33.9152,9.8867 29.1507,11.9433 24.154,14.1389 19.3182,15.1032 15.4551,14.0134 12.8602,12.0886 9.7718,9.9796 5.7255,7.2741 0.9403,3.9737 -1.6488,2.1642 A2.7207,2.7207 0 0 1 1.6488,-2.1642 Z"
				stroke-linecap="round" fill="#1d1d1d" />
		</g>
	</g>
	<g transform="matrix(1, 0, 0, 1, 3301.5663, 32.744)" opacity="1">
		<g transform="scale(1)">
			<path
				d="M2.6759,0.1723 T2.5075,2.0404 2.138,5.89 1.6808,10.129 1.2674,14.7356 1.0432,18.918 0.9568,22.4736 1.0306,26.2224 1.2496,29.4499 1.3751,30.6508 A2.7289,2.7289 0 0 1 -4.0826,30.683 T-3.9717,29.4241 -3.6865,26.1193 -3.4359,22.307 -3.2495,18.7367 -3.1261,14.5024 -3.0542,9.7917 -2.9085,5.5437 -2.7485,1.7019 -2.6759,-0.1723 A2.6814,2.6814 0 0 1 2.6759,0.1723 ZM-0.1811,33.131 T-1.0348,33.5951 -4.6038,35.1198 -9.5198,37.0466 -13.6307,38.7161 -17.0734,40.2379 -19.9971,41.7905 -22.6349,43.5833 -24.4552,45.0649 -25.0288,45.5879 A2.9362,2.9362 0 0 1 -28.7836,41.0728 T-28.1647,40.6042 -25.71,39.1547 -22.1823,37.4726 -18.9286,36.0962 -15.4959,34.54 -11.5142,32.5948 -6.8244,30.2178 -3.3858,28.5539 -2.5264,28.2028 A2.7289,2.7289 0 0 1 -0.1811,33.131 Z"
				stroke-linecap="round" fill="#1d1d1d" />
		</g>
	</g>
	<g transform="matrix(1, 0, 0, 1, 3274.3131, 76.0696)" opacity="1">
		<g transform="scale(1)">
			<path
				d="M-1.7326,2.1702 T-3.8213,0.3281 -8.1531,-3.4461 -11.8133,-6.5534 -14.456,-8.8084 -16.7638,-10.9757 -19.0307,-13.3219 -20.2153,-14.5807 A2.449,2.449 0 0 1 -16.6492,-17.9382 T-14.5599,-15.6576 -11.3772,-12.3233 -8.902,-10.1161 -5.1527,-7.1952 -0.5263,-3.7991 1.7326,-2.1702 A2.777,2.777 0 0 1 -1.7326,2.1702 Z"
				stroke-linecap="round" fill="#1d1d1d" />
		</g>
	</g>
	<g transform="matrix(1, 0, 0, 1, 3256.3678, 59.4311)" opacity="1">
		<g transform="scale(1)">
			<path
				d="M-2.979,0 T-2.9049,-1.8488 -2.7698,-5.5576 -2.6711,-9.2133 -2.7319,-13.4621 -3.0137,-18.1695 -3.1972,-20.4237 A2.8569,2.8569 0 0 1 2.5069,-20.7553 T2.5899,-18.4253 2.6532,-13.5521 2.6711,-9.2133 2.7698,-5.5576 2.9049,-1.8488 2.979,0 A2.979,2.979 0 0 1 -2.979,0 Z"
				stroke-linecap="round" fill="#1d1d1d" />
		</g>
	</g>
	<g transform="matrix(1, 0, 0, 1, 3257.8686, 27.8344)" opacity="1">
		<g transform="scale(1)">
			<path
				d="M-0.7258,-2.6368 T2.0433,-3.2627 7.4732,-4.5342 12.2271,-5.7442 16.3841,-7.0583 20.6609,-8.0832 24.3501,-7.8671 27.7979,-6.5895 32.0428,-5.0505 34.3161,-4.2977 A2.9892,2.9892 0 0 1 32.4157,1.3707 T29.9284,0.5275 25.577,-1.1596 21.7311,-2.5711 17.6526,-2.6608 13.4608,-1.4928 8.7451,0.0378 3.4252,1.7575 0.7258,2.6368 A2.7349,2.7349 0 0 1 -0.7258,-2.6368 Z"
				stroke-linecap="round" fill="#1d1d1d" />
		</g>
	</g>
</svg>